<?xml version="1.0"?>
<svg version="1.1" xmlns="http://www.w3.org/2000/svg" width="800" height="800" style="border: dashed 2px #aaa"><path fill="#dfeb02" d="M17.8,453.3q0-10.8,6.4-21.4q-7.4-4.7-7.4-13.9q0-11.1,9.8-19.7q11-9.7,28.4-9.7q8,0,17.2,2.3q2.1,0.5,17.9,7.75t22.7,7.25q4.6,0,6.9-2.6q1.2-1.3,1.2-2.8t-1.3-2.7q-0.7-1-0.7-1.3t0.55-0.3t1.9,1.75t1.35,4.1t-3.15,4.5t-7.95,2.15q-7.5,0-23.3-7.25t-19.85-8.05t-9.25-0.8q-20.7,0-32.6,13.4q-1.4,1.5-3.3,6.05t-1.9,8.75q0,5.8,4.1,9q5.2-7.6,12.3-12.1t14.4-4.5q9,0,9,7q0,8.4-9.85,18.25t-18.25,9.85q-5.4,0-5.4-4.6q0-1.6,0.85-2.8t2.05-0.9l-0.2,2.3q0,1.5,4.6,1.5q6.8,0,14.35-7t9.15-13.7q0.4-1.5,0.4-2.7q0-4.5-5.75-4.5t-11.9,4.4t-11.55,11.6q0.4,0.2,3.1,0.8l6,0.2q4.4,0.2,4.4,1q0,1.4-4.2,1.4l-0.6,0q-6.1,0-10-1.5q-7.7,11.8-7.7,21.7q0,12.8,9.9,12.8q11.2,0,23.3-15.6l19.6-29.2q11-16,19.1-16.4l3.8,0.9q1.8,1,1.8,3t-1,2l-3.2-0.5q-6.9,0-17.7,14.9l-19.9,27.8q-12.8,14.9-24.5,14.9q-8,0-11.05-4.3t-3.05-12.5z M109.217,459.6q-5.9,0-5.9-6.9q0-3.9,2.75-8.65t6.75-11.15q-12.8,6.4-23.2,18.9q-5.8,8.7-6.8,8.7q-2.9,0-2.9-1.7q0-0.9,1.2-3.2q9.7-17.3,14.7-25.3q11.9-19.1,16.8-20.7q0.2-0.1,0.4-0.1q1.3,0,1.8,2.1q-0.3,2.1-10.4,15.2q-10.5,13.3-11.9,17.4q3.7-2.7,12.9-9.1q9.9-6.9,13.1-6.9t3.2,2.5q0,0.4-0.05,0.55t-6.95,9.45t-6.9,13.7q0,2.3,1.7,2.3q5.4-0.2,16.2-13q0.9-0.9,1.35-0.9t0.45,0.6q0,2-9.9,10.8q-6.2,5.4-8.4,5.4z M132.634,461.3q-1.1,0-2-0.3q-6.4-1.8-6.4-7.2q0-7,8.8-16.2t15.8-9.2q2.3,0,3.75,1.25t1.45,3.05q0,5.6-8.45,10.7t-13.75,5.1q-0.8,0-1.4-0.2q-1.5,2.7-1.5,5.7q0,5.2,4.95,5.2t12.85-6.7q6.1-4.9,10.4-10.4q0.9-1.2,1.55-1.2t0.65,0.6t-0.8,1.7q-5.4,7.1-13,12.6t-12.9,5.5z M151.534,432.5q0-1.2-2.55-1.2t-7.25,3.9q-6.3,5.2-9.8,10.9q0.6,0.2,1.3,0.2q3.8,0,10.15-4.05t7.95-8.85q0.2-0.5,0.2-0.9z M239.068,433q-5,0-9.3-0.8q1.4,4.4,5.9,19.9q1.4,4.5,4.4,9.1q4.1,5.9,7.6,5.9q4.2,0,7-8.5q0.5-2,1.05-2t0.8,1.15t0.25,1.55q0,2.5-2.8,6.4q-3.7,5.5-8.1,5.5t-8.1-4.4t-7.25-16.05t-3.55-14.85q0-0.5,0.1-0.8q-12,15.9-17.2,21q-11.6,11.3-23.7,11.3q-8.5,0-8.5-6.4q0-3.2,2-7.05t4.9-6.75t5.1-2.9q0.4,0,0.4,0.2q0,0.5-2.5,2.5t-4.8,5.65t-2.3,6.65q0,5.3,7.1,5.3q13.3,0,36.6-31.2q1.3-1.7,2.2-2.4l-1.6-0.6q-1.3,0.5-2.1,0.5q-2.1,0-2.1-1.7q0-2.3,3.1-3q0.4-0.1,0.7-0.1q1.8,0,4.2,1.8q8.8-9.8,9-10q7.3-7.5,9.85-7.5t2.55,2.2q0,1-0.45,1.9t-1.05,0.9q-0.6,0.2-0.6-0.6q0-0.4,0.6-1.2q0.1-1.4-0.9-1.4q-3.2,0-15.5,17q3,0.2,5,0.2q23.2,0,29-12q1.2-2.6,1.2-4.8q0-4.4-4-7.6q-6.4-5.2-20.8-5.2t-29.4,7.3q-18.2,8.9-18.2,20.9q0,3.9,4.9,3.9t10.4-3.6t7.4-7.1q0.7-1.3,1.35-1.3t0.35,0.8q-1.9,5.6-8.45,9.55t-13.65,3.95t-7.1-4.5l0-0.7q1.5-13.1,16.05-22.25t35.05-9.15q19.1,0,27.1,6.6q4.8,4,4.8,9.4q0,2.3-1.1,5q-3.1,7.3-12.7,10.85t-20.2,3.55z M287.585,438.8q0,3.5-6.7,11.7q-7.9,9.7-13.5,9.7l-1.6,0q-2.6,0-4.1-2.7q-1.2-1.9-1.2-4.2q0-6,8.75-16.85t14.15-10.85q5.1,0,5.1,5.4q0,1.4-0.5,3.6q0.1,0.3,1.9,0.3t5.5-1.9q-0.1,1.7-7.9,4.9q0.1,0.4,0.1,0.9z M281.085,433.6q-3.4,0-9.65,8t-6.25,11.8t2.4,3.8q4.3,0,10.9-7.8t6.6-11.2q-1.6-0.9-4-4.6z M288.402,471.6q4.8,6,8.3,6q5.7,0,12.3-9.1q4.8-6.7,9.4-16.9l3.8-9.2l-14.7,11.5q-6.8,5.3-10.9,5.3q-2.2,0-3.5-1.5t-1.3-3.4q0-4.3,7.4-14.15t10.8-9.85t3.4,2.3q0,0.9-8.85,10.35t-8.85,12.75q0,1.3,1.7,1.3q3.2,0,12.85-7.5t14.55-12.4q1.1-1.3,3.1-3.9q1.9-2.2,4.2-2.2t2.3,2.2q0,0.4-4.5,7.1t-4.7,7.1q-3.1,6-9.5,17.5q-9.7,15.6-19.4,15.6q-3.2,0-5.6-2.75t-2.3-6.15z M368.619,430.1l1.4-0.3q1.1,0,2.1,0.9t1,1.4t-6.2,9.65t-6.2,12.75q0,0.3,0.1,0.6q0.5,2.3,2.2,2.3q5.2,0,19-17.2q0.3-0.4,0.7-0.4t0.4,0.75t-0.9,1.95q-12.8,17.1-19.5,17.1q-0.9,0-1.7-0.3q-4.4-1.7-4.4-6.6q0-1.7,0.4-3.4l-6.2,6q-5.9,5.2-8.55,5.2t-5.05-1.7q-2.7-2-2.7-5.3q0-7.3,10.2-17.45t18.7-10.15q3.3,0,4.4,2.3q0.3,0.8,0.5,1.35t0.3,0.55z M338.719,454.7q0,3.6,2.5,3.6q5.8,0,15.8-12.7l10.6-14.6q-0.8-1.4-2.6-1.4q-6.1,0-16.2,9.45t-10.1,15.65z M388.236,458q3.3,0,8.5-3.5t10.1-9.5q1.2-1.6,1.9-1.6t0.7,0.6t-4.1,5.2q-10,11-16.7,11q-3.3,0-5.6-1.55t-2.3-4.8t1.7-7.55q2.9-6.8,9.3-17.1q11.7-19,16.6-19q1,0,2.05,0.75t1.15,1.65q-2.3,3.1-8.85,11.9t-9.05,12.65t-3.75,5.75t-1.85,2.95t-1.4,2.75q-1.7,3.4-1.7,6.4t3.3,3z M436.77,453.3q0-10.8,6.4-21.4q-7.4-4.7-7.4-13.9q0-11.1,9.8-19.7q11-9.7,28.4-9.7q8,0,17.2,2.3q2.1,0.5,17.9,7.75t22.7,7.25q4.6,0,6.9-2.6q1.2-1.3,1.2-2.8t-1.3-2.7q-0.7-1-0.7-1.3t0.55-0.3t1.9,1.75t1.35,4.1t-3.15,4.5t-7.95,2.15q-7.5,0-23.3-7.25t-19.85-8.05t-9.25-0.8q-20.7,0-32.6,13.4q-1.4,1.5-3.3,6.05t-1.9,8.75q0,5.8,4.1,9q5.2-7.6,12.3-12.1t14.4-4.5q9,0,9,7q0,8.4-9.85,18.25t-18.25,9.85q-5.4,0-5.4-4.6q0-1.6,0.85-2.8t2.05-0.9l-0.2,2.3q0,1.5,4.6,1.5q6.8,0,14.35-7t9.15-13.7q0.4-1.5,0.4-2.7q0-4.5-5.75-4.5t-11.9,4.4t-11.55,11.6q0.4,0.2,3.1,0.8l6,0.2q4.4,0.2,4.4,1q0,1.4-4.2,1.4l-0.6,0q-6.1,0-10-1.5q-7.7,11.8-7.7,21.7q0,12.8,9.9,12.8q11.2,0,23.3-15.6l19.6-29.2q11-16,19.1-16.4l3.8,0.9q1.8,1,1.8,3t-1,2l-3.2-0.5q-6.9,0-17.7,14.9l-19.9,27.8q-12.8,14.9-24.5,14.9q-8,0-11.05-4.3t-3.05-12.5z M530.587,438.8q0,3.5-6.7,11.7q-7.9,9.7-13.5,9.7l-1.6,0q-2.6,0-4.1-2.7q-1.2-1.9-1.2-4.2q0-6,8.75-16.85t14.15-10.85q5.1,0,5.1,5.4q0,1.4-0.5,3.6q0.1,0.3,1.9,0.3t5.5-1.9q-0.1,1.7-7.9,4.9q0.1,0.4,0.1,0.9z M524.087,433.6q-3.4,0-9.65,8t-6.25,11.8t2.4,3.8q4.3,0,10.9-7.8t6.6-11.2q-1.6-0.9-4-4.6z M565.004,460.6q-0.5,0.1-2.15,0.1t-3.3-1.3t-1.65-3.35t0.75-4.55t1.05-3.8q-11.5,13.4-18,13.4q-4.1,0-4.5-5.1l0-0.7q0-4.3,5.2-11.6q-2.9,2.6-5.9,6q-0.4,0.4-1,0.4q-0.4,0-0.4-0.5t0.9-1.7l13.8-16.2q2.6-3,5.3-3t2.7,1.8q0,0.7-0.6,1.3q-4,3.7-10.05,12.3t-6.05,12.7q0,1.8,1.2,1.8q4.2,0,12.2-8.3q2.8-2.8,10.4-12.35t10-9.55q3.6,0,3.6,2.8q0,1-4.2,5.8q-5.7,6.9-8.7,11.25t-3,7.05t1.5,2.7q0.7,0,1.6-0.4q6.9-3,16.5-14q0.6-0.7,1.2-0.7t0.6,0.65t-0.7,1.45q-4.3,5-10.1,10.05t-8.2,5.55z M591.521,461.3q-1.1,0-2-0.3q-6.4-1.8-6.4-7.2q0-7,8.8-16.2t15.8-9.2q2.3,0,3.75,1.25t1.45,3.4t-1.3,4.5t-3.9,2.35t-2.6-1.6q0-1.1,1.35-3.35t1.35-2.4t-0.3-0.15q-2.8,0.3-7.65,4t-6.65,6.2l-3.9,5.7q-1,1.6-1.45,3.8t-0.45,3.3t1.25,2.5t3.55,1.4q5,0,12.4-5.85t11.4-11.15q0.5-0.6,1.2-0.6t0.7,0.4t-0.5,1q-5.5,7.3-13.15,12.75t-12.75,5.45z M640.338,459.6q-5.9,0-5.9-6.9q0-3.9,2.75-8.65t6.75-11.15q-12.8,6.4-23.2,18.9q-5.8,8.7-6.8,8.7q-2.9,0-2.9-1.7q0-0.9,1.2-3.2q9.7-17.3,14.7-25.3q11.9-19.1,16.8-20.7q0.2-0.1,0.4-0.1q1.3,0,1.8,2.1q-0.3,2.1-10.4,15.2q-10.5,13.3-11.9,17.4q3.7-2.7,12.9-9.1q9.9-6.9,13.1-6.9t3.2,2.5q0,0.4-0.05,0.55t-6.95,9.45t-6.9,13.7q0,2.3,1.7,2.3q5.4-0.2,16.2-13q0.9-0.9,1.35-0.9t0.45,0.6q0,2-9.9,10.8q-6.2,5.4-8.4,5.4z"/><path fill="#" d=""/></svg>
