<?xml version="1.0"?>
<svg version="1.1" xmlns="http://www.w3.org/2000/svg" width="400" height="200" style="border: dashed 2px #aaa"><path fill="#dfeb02" d="M15.952,118.122q0-3.672,2.176-7.276q-2.516-1.598-2.516-4.726q0-3.774,3.332-6.698q3.74-3.298,9.656-3.298q2.72,0,5.848,0.782q0.714,0.17,6.086,2.635t7.718,2.465q1.564,0,2.346-0.884q0.408-0.442,0.408-0.952t-0.442-0.918q-0.238-0.34-0.238-0.442t0.187-0.102t0.646,0.595t0.459,1.394t-1.071,1.53t-2.703,0.731q-2.55,0-7.922-2.465t-6.749-2.737t-3.145-0.272q-7.038,0-11.084,4.556q-0.476,0.51-1.122,2.057t-0.646,2.975q0,1.972,1.394,3.06q1.768-2.584,4.182-4.114t4.896-1.53q3.06,0,3.06,2.38q0,2.856-3.349,6.205t-6.205,3.349q-1.836,0-1.836-1.564q0-0.544,0.289-0.952t0.697-0.306l-0.068,0.782q0,0.51,1.564,0.51q2.312,0,4.879-2.38t3.111-4.658q0.136-0.51,0.136-0.918q0-1.53-1.955-1.53t-4.046,1.496t-3.927,3.944q0.136,0.068,1.054,0.272l2.04,0.068q1.496,0.068,1.496,0.34q0,0.476-1.428,0.476l-0.204,0q-2.074,0-3.4-0.51q-2.618,4.012-2.618,7.378q0,4.352,3.366,4.352q3.808,0,7.922-5.304l6.664-9.928q3.74-5.44,6.494-5.576l1.292,0.306q0.612,0.34,0.612,1.02t-0.34,0.68l-1.088-0.17q-2.346,0-6.018,5.066l-6.766,9.452q-4.352,5.066-8.33,5.066q-2.72,0-3.757-1.462t-1.037-4.25z M47.03378,120.264q-2.006,0-2.006-2.346q0-1.326,0.935-2.941t2.295-3.791q-4.352,2.176-7.888,6.426q-1.972,2.958-2.312,2.958q-0.986,0-0.986-0.578q0-0.306,0.408-1.088q3.298-5.882,4.998-8.602q4.046-6.494,5.712-7.038q0.068-0.034,0.136-0.034q0.442,0,0.612,0.714q-0.102,0.714-3.536,5.168q-3.57,4.522-4.046,5.916q1.258-0.918,4.386-3.094q3.366-2.346,4.454-2.346t1.088,0.85q0,0.136-0.017,0.187t-2.363,3.213t-2.346,4.658q0,0.782,0.578,0.782q1.836-0.068,5.508-4.42q0.306-0.306,0.459-0.306t0.153,0.204q0,0.68-3.366,3.672q-2.108,1.836-2.856,1.836z M54.99556,120.842q-0.374,0-0.68-0.102q-2.176-0.612-2.176-2.448q0-2.38,2.992-5.508t5.372-3.128q0.782,0,1.275,0.425t0.493,1.037q0,1.904-2.873,3.638t-4.675,1.734q-0.272,0-0.476-0.068q-0.51,0.918-0.51,1.938q0,1.768,1.683,1.768t4.369-2.278q2.074-1.666,3.536-3.536q0.306-0.408,0.527-0.408t0.221,0.204t-0.272,0.578q-1.836,2.414-4.42,4.284t-4.386,1.87z M61.42156,111.05q0-0.408-0.867-0.408t-2.465,1.326q-2.142,1.768-3.332,3.706q0.204,0.068,0.442,0.068q1.292,0,3.451-1.377t2.703-3.009q0.068-0.17,0.068-0.306z M91.18312,111.22q-1.7,0-3.162-0.272q0.476,1.496,2.006,6.766q0.476,1.53,1.496,3.094q1.394,2.006,2.584,2.006q1.428,0,2.38-2.89q0.17-0.68,0.357-0.68t0.272,0.391t0.085,0.527q0,0.85-0.952,2.176q-1.258,1.87-2.754,1.87t-2.754-1.496t-2.465-5.457t-1.207-5.049q0-0.17,0.034-0.272q-4.08,5.406-5.848,7.14q-3.944,3.842-8.058,3.842q-2.89,0-2.89-2.176q0-1.088,0.68-2.397t1.666-2.295t1.734-0.986q0.136,0,0.136,0.068q0,0.17-0.85,0.85t-1.632,1.921t-0.782,2.261q0,1.802,2.414,1.802q4.522,0,12.444-10.608q0.442-0.578,0.748-0.816l-0.544-0.204q-0.442,0.17-0.714,0.17q-0.714,0-0.714-0.578q0-0.782,1.054-1.02q0.136-0.034,0.238-0.034q0.612,0,1.428,0.612q2.992-3.332,3.06-3.4q2.482-2.55,3.349-2.55t0.867,0.748q0,0.34-0.153,0.646t-0.357,0.306q-0.204,0.068-0.204-0.204q0-0.136,0.204-0.408q0.034-0.476-0.306-0.476q-1.088,0-5.27,5.78q1.02,0.068,1.7,0.068q7.888,0,9.86-4.08q0.408-0.884,0.408-1.632q0-1.496-1.36-2.584q-2.176-1.768-7.072-1.768t-9.996,2.482q-6.188,3.026-6.188,7.106q0,1.326,1.666,1.326t3.536-1.224t2.516-2.414q0.238-0.442,0.459-0.442t0.119,0.272q-0.646,1.904-2.873,3.247t-4.641,1.343t-2.414-1.53l0-0.238q0.51-4.454,5.457-7.565t11.917-3.111q6.494,0,9.214,2.244q1.632,1.36,1.632,3.196q0,0.782-0.374,1.7q-1.054,2.482-4.318,3.689t-6.868,1.207z M107.6789,113.192q0,1.19-2.278,3.978q-2.686,3.298-4.59,3.298l-0.544,0q-0.884,0-1.394-0.918q-0.408-0.646-0.408-1.428q0-2.04,2.975-5.729t4.811-3.689q1.734,0,1.734,1.836q0,0.476-0.17,1.224q0.034,0.102,0.646,0.102t1.87-0.646q-0.034,0.578-2.686,1.666q0.034,0.136,0.034,0.306z M105.4689,111.424q-1.156,0-3.281,2.72t-2.125,4.012t0.816,1.292q1.462,0,3.706-2.652t2.244-3.808q-0.544-0.306-1.36-1.564z M107.95668,124.344q1.632,2.04,2.822,2.04q1.938,0,4.182-3.094q1.632-2.278,3.196-5.746l1.292-3.128l-4.998,3.91q-2.312,1.802-3.706,1.802q-0.748,0-1.19-0.51t-0.442-1.156q0-1.462,2.516-4.811t3.672-3.349t1.156,0.782q0,0.306-3.009,3.519t-3.009,4.335q0,0.442,0.578,0.442q1.088,0,4.369-2.55t4.947-4.216q0.374-0.442,1.054-1.326q0.646-0.748,1.428-0.748t0.782,0.748q0,0.136-1.53,2.414t-1.598,2.414q-1.054,2.04-3.23,5.95q-3.298,5.304-6.596,5.304q-1.088,0-1.904-0.935t-0.782-2.091z M135.23046,110.234l0.476-0.102q0.374,0,0.714,0.306t0.34,0.476t-2.108,3.281t-2.108,4.335q0,0.102,0.034,0.204q0.17,0.782,0.748,0.782q1.768,0,6.46-5.848q0.102-0.136,0.238-0.136t0.136,0.255t-0.306,0.663q-4.352,5.814-6.63,5.814q-0.306,0-0.578-0.102q-1.496-0.578-1.496-2.244q0-0.578,0.136-1.156l-2.108,2.04q-2.006,1.768-2.907,1.768t-1.717-0.578q-0.918-0.68-0.918-1.802q0-2.482,3.468-5.933t6.358-3.451q1.122,0,1.496,0.782q0.102,0.272,0.17,0.459t0.102,0.187z M125.06446,118.598q0,1.224,0.85,1.224q1.972,0,5.372-4.318l3.604-4.964q-0.272-0.476-0.884-0.476q-2.074,0-5.508,3.213t-3.434,5.321z M141.90024,119.72q1.122,0,2.89-1.19t3.434-3.23q0.408-0.544,0.646-0.544t0.238,0.204t-1.394,1.768q-3.4,3.74-5.678,3.74q-1.122,0-1.904-0.527t-0.782-1.632t0.578-2.567q0.986-2.312,3.162-5.814q3.978-6.46,5.644-6.46q0.34,0,0.697,0.255t0.391,0.561q-0.782,1.054-3.009,4.046t-3.077,4.301t-1.275,1.955t-0.629,1.003t-0.476,0.935q-0.578,1.156-0.578,2.176t1.122,1.02z M158.4018,118.122q0-3.672,2.176-7.276q-2.516-1.598-2.516-4.726q0-3.774,3.332-6.698q3.74-3.298,9.656-3.298q2.72,0,5.848,0.782q0.714,0.17,6.086,2.635t7.718,2.465q1.564,0,2.346-0.884q0.408-0.442,0.408-0.952t-0.442-0.918q-0.238-0.34-0.238-0.442t0.187-0.102t0.646,0.595t0.459,1.394t-1.071,1.53t-2.703,0.731q-2.55,0-7.922-2.465t-6.749-2.737t-3.145-0.272q-7.038,0-11.084,4.556q-0.476,0.51-1.122,2.057t-0.646,2.975q0,1.972,1.394,3.06q1.768-2.584,4.182-4.114t4.896-1.53q3.06,0,3.06,2.38q0,2.856-3.349,6.205t-6.205,3.349q-1.836,0-1.836-1.564q0-0.544,0.289-0.952t0.697-0.306l-0.068,0.782q0,0.51,1.564,0.51q2.312,0,4.879-2.38t3.111-4.658q0.136-0.51,0.136-0.918q0-1.53-1.955-1.53t-4.046,1.496t-3.927,3.944q0.136,0.068,1.054,0.272l2.04,0.068q1.496,0.068,1.496,0.34q0,0.476-1.428,0.476l-0.204,0q-2.074,0-3.4-0.51q-2.618,4.012-2.618,7.378q0,4.352,3.366,4.352q3.808,0,7.922-5.304l6.664-9.928q3.74-5.44,6.494-5.576l1.292,0.306q0.612,0.34,0.612,1.02t-0.34,0.68l-1.088-0.17q-2.346,0-6.018,5.066l-6.766,9.452q-4.352,5.066-8.33,5.066q-2.72,0-3.757-1.462t-1.037-4.25z M190.29958,113.192q0,1.19-2.278,3.978q-2.686,3.298-4.59,3.298l-0.544,0q-0.884,0-1.394-0.918q-0.408-0.646-0.408-1.428q0-2.04,2.975-5.729t4.811-3.689q1.734,0,1.734,1.836q0,0.476-0.17,1.224q0.034,0.102,0.646,0.102t1.87-0.646q-0.034,0.578-2.686,1.666q0.034,0.136,0.034,0.306z M188.08958,111.424q-1.156,0-3.281,2.72t-2.125,4.012t0.816,1.292q1.462,0,3.706-2.652t2.244-3.808q-0.544-0.306-1.36-1.564z M202.00136,120.604q-0.17,0.034-0.731,0.034t-1.122-0.442t-0.561-1.139t0.255-1.547t0.357-1.292q-3.91,4.556-6.12,4.556q-1.394,0-1.53-1.734l0-0.238q0-1.462,1.768-3.944q-0.986,0.884-2.006,2.04q-0.136,0.136-0.34,0.136q-0.136,0-0.136-0.17t0.306-0.578l4.692-5.508q0.884-1.02,1.802-1.02t0.918,0.612q0,0.238-0.204,0.442q-1.36,1.258-3.417,4.182t-2.057,4.318q0,0.612,0.408,0.612q1.428,0,4.148-2.822q0.952-0.952,3.536-4.199t3.4-3.247q1.224,0,1.224,0.952q0,0.34-1.428,1.972q-1.938,2.346-2.958,3.825t-1.02,2.397t0.51,0.918q0.238,0,0.544-0.136q2.346-1.02,5.61-4.76q0.204-0.238,0.408-0.238t0.204,0.221t-0.238,0.493q-1.462,1.7-3.434,3.417t-2.788,1.887z M211.01714,120.842q-0.374,0-0.68-0.102q-2.176-0.612-2.176-2.448q0-2.38,2.992-5.508t5.372-3.128q0.782,0,1.275,0.425t0.493,1.156t-0.442,1.53t-1.326,0.799t-0.884-0.544q0-0.374,0.459-1.139t0.459-0.816t-0.102-0.051q-0.952,0.102-2.601,1.36t-2.261,2.108l-1.326,1.938q-0.34,0.544-0.493,1.292t-0.153,1.122t0.425,0.85t1.207,0.476q1.7,0,4.216-1.989t3.876-3.791q0.17-0.204,0.408-0.204t0.238,0.136t-0.17,0.34q-1.87,2.482-4.471,4.335t-4.335,1.853z M227.61492,120.264q-2.006,0-2.006-2.346q0-1.326,0.935-2.941t2.295-3.791q-4.352,2.176-7.888,6.426q-1.972,2.958-2.312,2.958q-0.986,0-0.986-0.578q0-0.306,0.408-1.088q3.298-5.882,4.998-8.602q4.046-6.494,5.712-7.038q0.068-0.034,0.136-0.034q0.442,0,0.612,0.714q-0.102,0.714-3.536,5.168q-3.57,4.522-4.046,5.916q1.258-0.918,4.386-3.094q3.366-2.346,4.454-2.346t1.088,0.85q0,0.136-0.017,0.187t-2.363,3.213t-2.346,4.658q0,0.782,0.578,0.782q1.836-0.068,5.508-4.42q0.306-0.306,0.459-0.306t0.153,0.204q0,0.68-3.366,3.672q-2.108,1.836-2.856,1.836z"/><path fill="#" d=""/></svg>
